# xmcd
#
# Track frame offsets: 
#        150
#        41586
#        74534
#        108416
#        143499
#        174565
#        208817
#        242221
#        276713
#        308453
#
# Disc length: 4761 seconds
#
# Revision: 0
# Processed by: cddbd v1.5.2PL0 Copyright (c) Steve Scherf et al.
# Submitted via: ExactAudioCopy v1.3
#
DISCID=9612970a
DTITLE=Various Artist - Akella Presents - vol. 177 - Long Time of Roc
DTITLE=kin' Blues  CD1
DYEAR=2019
DGENRE=Blues
TTITLE0=The Silver Dimes - Double Trouble
TTITLE1=Bob Malone - Rage and Cigarettes
TTITLE2=Coyote Kings - Well Run Dry
TTITLE3=Fred Chapellier and Dale Blade - Crying With The Blues
TTITLE4=Bad Temper Joe - Blues Never Stumbles
TTITLE5=Mojo Machine - Big Shot
TTITLE6=Ally Venable Band - Comfort In My Sorrows
TTITLE7=Peter Karp - Her And My Blues
TTITLE8=John Weeks Band - How Can You Love Me
TTITLE9=Buddy Guy - Don't Know Which Way To Go
EXTD=
EXTT0=
EXTT1=
EXTT2=
EXTT3=
EXTT4=
EXTT5=
EXTT6=
EXTT7=
EXTT8=
EXTT9=
PLAYORDER=
